<?xml version="1.0" encoding="iso-8859-1"?>
<!-- Uploaded to: SVG Repo, www.svgrepo.com, Generator: SVG Repo Mixer Tools -->
<svg height="800px" width="800px" version="1.1" id="Layer_1" xmlns="http://www.w3.org/2000/svg" xmlns:xlink="http://www.w3.org/1999/xlink" 
	 viewBox="0 0 468 468" xml:space="preserve">
<g id="XMLID_1141_">
	<path id="XMLID_71_" style="fill:#1A6FB0;" d="M426.279,0H41.721C18.716,0,0,18.716,0,41.721V426.28
		C0,449.284,18.716,468,41.721,468H426.28c23.004,0,41.72-18.716,41.72-41.721V41.721C468,18.716,449.284,0,426.279,0z"/>
	<path id="XMLID_85_" style="fill:#165C92;" d="M426.279,0H234v468h192.279C449.284,468,468,449.284,468,426.279V41.721
		C468,18.716,449.284,0,426.279,0z"/>
	<g id="XMLID_86_">
		<g id="XMLID_350_">
			<g id="XMLID_351_">
				<path id="XMLID_352_" style="fill:#C6C5CA;" d="M183.471,158.813H75.477c-8.284,0-15-6.716-15-15s6.716-15,15-15h107.994
					c8.284,0,15,6.716,15,15C198.471,152.097,191.755,158.813,183.471,158.813z"/>
			</g>
			<g id="XMLID_439_">
				<path id="XMLID_440_" style="fill:#E0E0E2;" d="M129.474,212.809c-8.284,0-15-6.716-15-15V89.815c0-8.284,6.716-15,15-15
					s15,6.716,15,15v107.994C144.474,206.094,137.758,212.809,129.474,212.809z"/>
			</g>
		</g>
		<g id="XMLID_441_">
			<g id="XMLID_443_">
				<path id="XMLID_444_" style="fill:#C6C5CA;" d="M167.655,380.992c-3.839,0-7.678-1.464-10.606-4.393l-76.363-76.364
					c-5.858-5.857-5.858-15.355,0-21.213c5.857-5.857,15.355-5.859,21.213,0l76.363,76.364c5.858,5.857,5.858,15.355,0,21.213
					C175.333,379.527,171.493,380.992,167.655,380.992z"/>
			</g>
			<g id="XMLID_445_">
				<path id="XMLID_446_" style="fill:#E0E0E2;" d="M91.292,380.992c-3.839,0-7.678-1.465-10.606-4.393
					c-5.858-5.857-5.858-15.355,0-21.213l76.363-76.364c5.857-5.857,15.355-5.857,21.213,0c5.858,5.858,5.858,15.355,0,21.213
					l-76.363,76.364C98.97,379.527,95.131,380.992,91.292,380.992z"/>
			</g>
		</g>
		<g id="XMLID_447_">
			<g id="XMLID_448_">
				<path id="XMLID_449_" style="fill:#ACABB1;" d="M385.961,158.813H277.966c-8.284,0-15-6.716-15-15s6.716-15,15-15h107.995
					c8.284,0,15,6.716,15,15S394.245,158.813,385.961,158.813z"/>
			</g>
		</g>
		<g id="XMLID_450_">
			<g id="XMLID_451_">
				<g id="XMLID_452_">
					<path id="XMLID_453_" style="fill:#ACABB1;" d="M293.781,378.994c-3.839,0-7.678-1.464-10.607-4.394
						c-5.858-5.857-5.858-15.355,0-21.213l76.364-76.363c5.858-5.858,15.356-5.859,21.213,0c5.858,5.857,5.858,15.355,0,21.213
						L304.388,374.6C301.459,377.529,297.619,378.994,293.781,378.994z"/>
				</g>
			</g>
			<g id="XMLID_454_">
				<g id="XMLID_455_">
					<circle id="XMLID_2042_" style="fill:#C6C5CA;" cx="289.866" cy="291.904" r="18.461"/>
				</g>
				<g id="XMLID_458_">
					<circle id="XMLID_2040_" style="fill:#C6C5CA;" cx="374.061" cy="359.722" r="18.461"/>
				</g>
			</g>
		</g>
	</g>
</g>
</svg>